# xmcd
#
# Track frame offsets: 
#        150
#        19694
#        37155
#        56915
#        71722
#        90806
#        106762
#        124279
#        141775
#        161995
#        179303
#        196095
#        213835
#
# Disc length: 3192 seconds
#
# Revision: 0
# Processed by: cddbd v1.5.2PL0 Copyright (c) Steve Scherf et al.
# Submitted via: ExactAudioCopy v1.3
#
DISCID=b50c760d
DTITLE=Corey Stevens - Galaxy Radio
DYEAR=2012
DGENRE=Blues Rock
TTITLE0=Gravity Zero
TTITLE1=Shi - Nola
TTITLE2=No Vango
TTITLE3=I Feel Alright
TTITLE4=Captain Lunk of the Underworld
TTITLE5=Super Moon
TTITLE6=When All Is Said and Done
TTITLE7=On This Side of the Wave
TTITLE8=So It Goes
TTITLE9=Reason
TTITLE10=Put Your Love in My Heart
TTITLE11=I Wish You Were Back On Drugs
TTITLE12=Teph - Lawn Heart
EXTD=
EXTT0=
EXTT1=
EXTT2=
EXTT3=
EXTT4=
EXTT5=
EXTT6=
EXTT7=
EXTT8=
EXTT9=
EXTT10=
EXTT11=
EXTT12=
PLAYORDER=
